<?xml version="1.0" standalone="no"?>
<!DOCTYPE svg PUBLIC "-//W3C//DTD SVG 20010904//EN"
 "http://www.w3.org/TR/2001/REC-SVG-20010904/DTD/svg10.dtd">
<svg version="1.0" xmlns="http://www.w3.org/2000/svg"
 width="1024.000000pt" height="1024.000000pt" viewBox="0 0 1024.000000 1024.000000"
 preserveAspectRatio="xMidYMid meet">
<metadata>
Created by potrace 1.16, written by Peter Selinger 2001-2019
</metadata>
<g transform="translate(0.000000,1024.000000) scale(0.100000,-0.100000)"
fill="#000000" stroke="none">
<path d="M0 5120 l0 -5120 5120 0 5120 0 0 5120 0 5120 -5120 0 -5120 0 0
-5120z m7258 2740 c1 -223 0 -415 -3 -427 -6 -27 -34 -42 -146 -81 -276 -96
-466 -257 -586 -497 -65 -129 -124 -323 -143 -472 -6 -43 -13 -90 -16 -105
l-6 -28 325 0 324 0 7 -37 c8 -49 8 -202 -1 -381 l-6 -143 -332 3 -333 3 -6
-84 c-4 -46 -6 -175 -5 -287 l2 -204 321 0 c272 0 325 -2 343 -15 22 -15 22
-19 20 -270 -2 -227 -4 -256 -20 -272 -16 -16 -44 -17 -336 -16 l-319 2 -5
-472 c-4 -457 -5 -476 -30 -607 -32 -169 -59 -268 -104 -378 -218 -542 -681
-941 -1243 -1071 -186 -44 -312 -55 -585 -55 -371 1 -527 23 -1027 145 l-248
61 0 439 c0 269 4 439 9 439 6 0 36 -15 68 -34 353 -204 616 -296 953 -331
752 -80 1199 187 1359 810 41 160 51 294 51 684 l0 368 -137 6 c-75 4 -417 7
-760 7 l-623 0 2 278 3 277 758 3 757 2 0 285 0 285 -757 2 -758 3 -3 245 c-2
135 0 260 3 277 l6 33 761 2 761 3 13 65 c99 487 375 892 760 1119 110 65 134
84 134 108 0 11 -315 13 -1732 15 l-1733 3 -3 340 c-1 187 0 346 3 352 3 11
429 13 2132 11 l2128 -3 3 -405z"/>
</g>
</svg>
